<?xml version="1.0" encoding="UTF-8" standalone="no"?>
<svg width="53px" height="54px" viewBox="0 0 53 54" version="1.1" xmlns="http://www.w3.org/2000/svg" xmlns:xlink="http://www.w3.org/1999/xlink">
    <!-- Generator: Sketch 47.1 (45422) - http://www.bohemiancoding.com/sketch -->
    <title>Logo</title>
    <desc>Created with Sketch.</desc>
    <defs></defs>
    <g id="Website" stroke="none" stroke-width="1" fill="none" fill-rule="evenodd">
        <g id="Desktop-HD" transform="translate(-244.000000, -10.000000)">
            <g id="Header" transform="translate(0.000000, 10.000000)">
                <g id="Logo" transform="translate(244.000000, 0.000000)">
                    <path d="M2.10810811,14.9782609 L2.10810811,52.5391304" id="Line-7" stroke="#FFFFFF" stroke-width="1.8696601" stroke-linecap="square"></path>
                    <path d="M2.34234234,48.8521739 L22.954955,48.8521739" id="Line-8-Copy" stroke="#FFFFFF" stroke-width="0.934830051" stroke-linecap="square"></path>
                    <path d="M2.34234234,52.5391304 L23.1891892,52.5391304" id="Line-8-Copy" stroke="#FFFFFF" stroke-width="1.8696601" stroke-linecap="square"></path>
                    <path d="M0.936936937,13.3652174 L3.74774775,13.3652174" id="Line-13" stroke="#FFFFFF" stroke-width="1.8696601" stroke-linecap="square"></path>
                    <path d="M22.018018,8.75652174 L24.8288288,8.75652174" id="Line-13" stroke="#FFFFFF" stroke-width="1.8696601" stroke-linecap="square"></path>
                    <path d="M22.8027027,21.5316013 L22.8027027,9.89745493" id="Line-9" stroke="#FFFFFF" stroke-width="1.8696601" stroke-linecap="square"></path>
                    <path d="M22.8027027,51.0609756 L22.8027027,42.0121951" id="Line-9-Copy" stroke="#FFFFFF" stroke-width="1.8696601" stroke-linecap="square"></path>
                    <path d="M2.81081081,19.2193122 L22.954955,13.2280078" id="Line-10" stroke="#FFFFFF" stroke-width="1.8696601" stroke-linecap="square"></path>
                    <path d="M9.36936937,51.1565217 L9.36936937,14.2869565" id="Line-11" stroke="#FFFFFF" stroke-width="1.8696601" stroke-linecap="square"></path>
                    <path d="M16.3963964,50.926087 L16.3963964,12.4434783" id="Line-12" stroke="#FFFFFF" stroke-width="1.8696601" stroke-linecap="square"></path>
                    <polygon id="Polygon" fill="#FFFFFF" points="1.87387387 4.60869565 3.74774775 8.37648485 3.03199162 10.6 0.715756129 10.6 4.4408921e-16 8.37648485"></polygon>
                    <polygon id="Polygon" fill="#FFFFFF" points="22.954955 0 24.8288288 3.76778919 24.1130727 5.99130435 21.7968372 5.99130435 21.0810811 3.76778919"></polygon>
                    <path d="M49.8918919,14.9782609 L49.8918919,52.5391304" id="Line-7" stroke="#FFFFFF" stroke-width="1.8696601" stroke-linecap="square" transform="translate(49.891892, 33.643478) scale(-1, 1) translate(-49.891892, -33.643478) "></path>
                    <path d="M29.045045,48.8521739 L49.6576577,48.8521739" id="Line-8-Copy" stroke="#FFFFFF" stroke-width="0.934830051" stroke-linecap="square" transform="translate(39.351351, 48.852174) scale(-1, 1) translate(-39.351351, -48.852174) "></path>
                    <path d="M28.8108108,52.5391304 L49.6576577,52.5391304" id="Line-8-Copy" stroke="#FFFFFF" stroke-width="1.8696601" stroke-linecap="square" transform="translate(39.234234, 52.539130) scale(-1, 1) translate(-39.234234, -52.539130) "></path>
                    <path d="M48.7207207,13.3652174 L51.5315315,13.3652174" id="Line-13" stroke="#FFFFFF" stroke-width="1.8696601" stroke-linecap="square" transform="translate(50.126126, 13.365217) scale(-1, 1) translate(-50.126126, -13.365217) "></path>
                    <path d="M27.6396396,8.75652174 L30.4504505,8.75652174" id="Line-13" stroke="#FFFFFF" stroke-width="1.8696601" stroke-linecap="square" transform="translate(29.045045, 8.756522) scale(-1, 1) translate(-29.045045, -8.756522) "></path>
                    <path d="M28.6,50.4146341 L28.6,41.3658537" id="Line-9" stroke="#FFFFFF" stroke-width="1.8696601" stroke-linecap="square" transform="translate(28.600000, 45.890244) scale(-1, 1) translate(-28.600000, -45.890244) "></path>
                    <path d="M28.6,21.9756098 L28.6,10.3414634" id="Line-9-Copy-2" stroke="#FFFFFF" stroke-width="1.8696601" stroke-linecap="square" transform="translate(28.600000, 16.158537) scale(-1, 1) translate(-28.600000, -16.158537) "></path>
                    <path d="M29.5135135,19.2193122 L49.6576577,13.2280078" id="Line-10" stroke="#FFFFFF" stroke-width="1.8696601" stroke-linecap="square" transform="translate(39.585586, 16.130435) scale(-1, 1) translate(-39.585586, -16.130435) "></path>
                    <path d="M43.0990991,50.6956522 L43.0990991,14.2869565" id="Line-11" stroke="#FFFFFF" stroke-width="1.8696601" stroke-linecap="square" transform="translate(43.099099, 32.491304) scale(-1, 1) translate(-43.099099, -32.491304) "></path>
                    <path d="M36.0720721,50.926087 L36.0720721,12.4434783" id="Line-12" stroke="#FFFFFF" stroke-width="1.8696601" stroke-linecap="square" transform="translate(36.072072, 31.800000) scale(-1, 1) translate(-36.072072, -31.800000) "></path>
                    <polygon id="Polygon" fill="#FFFFFF" transform="translate(50.126126, 7.604348) scale(-1, 1) translate(-50.126126, -7.604348) " points="50.1261261 4.60869565 52 8.37648485 51.2842439 10.6 48.9680084 10.6 48.2522523 8.37648485"></polygon>
                    <polygon id="Polygon" fill="#FFFFFF" transform="translate(29.045045, 2.995652) scale(-1, 1) translate(-29.045045, -2.995652) " points="29.045045 0 30.9189189 3.76778919 30.2031628 5.99130435 27.8869273 5.99130435 27.1711712 3.76778919"></polygon>
                    <path d="M16.3963964,23.0434783 L35.6036036,23.0434783" id="Line-8" stroke="#FFFFFF" stroke-width="1.40224508" stroke-linecap="square"></path>
                    <path d="M16.3963964,41.0173913 L35.6036036,41.0173913" id="Line-8-Copy-2" stroke="#FFFFFF" stroke-width="1.40224508" stroke-linecap="square"></path>
                    <g id="Group-2" transform="translate(19.675676, 27.191304)" fill="#FFFFFF">
                        <path d="M6.28257925,7.66375679 C6.29264405,7.68355988 6.31277336,7.69346128 6.34296776,7.69346128 C6.37819457,7.69346128 6.4033562,7.67365849 6.41845341,7.63405231 C7.88791458,3.90612097 8.65786043,1.95554604 8.72831405,1.78226902 L9.3925877,0 C10.0367351,0.0396061763 10.4342888,0.0594089674 10.5852608,0.0594089674 C11.2092786,0.0594089674 11.7728991,0.0396061763 12.2761392,0 L12.3214306,0.430715014 C12.1805234,0.430715014 11.9754561,0.459181526 11.7062226,0.516115404 C11.4369892,0.573049283 11.2847613,0.63369533 11.2495345,0.698055367 C11.1992105,0.806972352 11.1740488,0.995098867 11.1740488,1.26244056 C11.1841136,1.56443765 11.1979525,2.09787534 11.2155659,2.86276962 C11.2331794,3.6276639 11.2533087,4.52374019 11.2759545,5.55102539 C11.2986003,6.57831059 11.3149553,7.31225153 11.3250201,7.75287024 C11.3451497,8.44597833 11.4055376,8.92619601 11.5061857,9.1935377 C11.5363801,9.2826516 11.6810594,9.34701067 11.9402281,9.38661685 C12.1993968,9.42622302 12.4069802,9.44602582 12.5629847,9.44602582 C12.5982115,9.50543508 12.6158246,9.5821709 12.6158246,9.67623556 C12.6158246,9.77030023 12.6082761,9.83713465 12.5931789,9.87674083 C11.5866987,9.82723311 10.9878519,9.80247962 10.7966206,9.80247962 C10.5902922,9.80247962 10.3940315,9.80619264 10.2078326,9.8136188 C10.0216338,9.82104496 9.8102761,9.83218403 9.57375324,9.84703635 C9.33723038,9.86188866 9.14096967,9.87179006 8.98496523,9.87674083 C8.96483563,9.85693774 8.95351289,9.79629169 8.95099669,9.69480087 C8.94848049,9.59331004 8.95980322,9.51038585 8.98496523,9.44602582 C9.10574286,9.44602582 9.2793581,9.42993605 9.50581616,9.39775603 C9.73227422,9.36557601 9.88576015,9.3272081 9.96627857,9.28265115 C10.0568618,9.23314343 10.1021527,9.02521413 10.1021527,8.658857 C10.1021527,8.58954619 10.0971204,8.44721363 10.0870556,8.23185504 C10.0769908,8.01649646 10.0719585,7.87168855 10.0719585,7.79742697 C9.98640765,4.7477514 9.92098742,2.62885275 9.8756958,1.44066746 C9.8756958,1.38620897 9.86437307,1.32308757 9.84172727,1.25130138 C9.81908146,1.17951518 9.78511326,1.14362262 9.73982165,1.14362262 C9.71969204,1.14362262 9.69453042,1.17827751 9.66433601,1.24758832 C9.43284555,1.81197633 8.3710248,4.43089545 6.47884192,9.10442425 C6.42851791,9.21334124 6.33793604,9.36309985 6.20709361,9.55370457 C6.07625118,9.74430929 6.00076478,6.96569794 6.28257925,7.66375679 Z" id="M"></path>
                        <path d="M0.192489161,7.66375679 C0.202553963,7.68355988 0.222683266,7.69346128 0.252877674,7.69346128 C0.288104483,7.69346128 0.313266112,7.67365849 0.328363316,7.63405231 C1.79782449,3.90612097 2.56777034,1.95554604 2.63822396,1.78226902 L3.30249761,0 C3.94664497,0.0396061763 4.34419871,0.0594089674 4.49517075,0.0594089674 C5.11918851,0.0594089674 5.682809,0.0396061763 6.18604913,0 L6.23134051,0.430715014 C6.09043328,0.430715014 5.885366,0.459181526 5.61613253,0.516115404 C5.34689906,0.573049283 5.19467121,0.63369533 5.1594444,0.698055367 C5.10912038,0.806972352 5.08395876,0.995098867 5.08395876,1.26244056 C5.09402356,1.56443765 5.10786245,2.09787534 5.12547586,2.86276962 C5.14308926,3.6276639 5.16321857,4.52374019 5.18586437,5.55102539 C5.20851018,6.57831059 5.22486524,7.31225153 5.23493004,7.75287024 C5.25505964,8.44597833 5.31544755,8.92619601 5.41609558,9.1935377 C5.44628999,9.2826516 5.59096935,9.34701067 5.85013802,9.38661685 C6.10930669,9.42622302 6.31689013,9.44602582 6.47289457,9.44602582 C6.50812137,9.50543508 6.52573452,9.5821709 6.52573452,9.67623556 C6.52573452,9.77030023 6.51818603,9.83713465 6.50308882,9.87674083 C5.49660857,9.82723311 4.89776179,9.80247962 4.70653055,9.80247962 C4.50020209,9.80247962 4.30394139,9.80619264 4.11774254,9.8136188 C3.93154369,9.82104496 3.72018601,9.83218403 3.48366315,9.84703635 C3.24714029,9.86188866 3.05087958,9.87179006 2.89487514,9.87674083 C2.87474554,9.85693774 2.8634228,9.79629169 2.8609066,9.69480087 C2.8583904,9.59331004 2.86971313,9.51038585 2.89487514,9.44602582 C3.01565277,9.44602582 3.18926801,9.42993605 3.41572607,9.39775603 C3.64218413,9.36557601 3.79567006,9.3272081 3.87618848,9.28265115 C3.96677171,9.23314343 4.01206264,9.02521413 4.01206264,8.658857 C4.01206264,8.58954619 4.00703031,8.44721363 3.99696551,8.23185504 C3.98690071,8.01649646 3.98186838,7.87168855 3.98186838,7.79742697 C3.89631756,4.7477514 3.83089733,2.62885275 3.78560571,1.44066746 C3.78560571,1.38620897 3.77428298,1.32308757 3.75163718,1.25130138 C3.72899137,1.17951518 3.69502317,1.14362262 3.64973156,1.14362262 C3.62960195,1.14362262 3.60444033,1.17827751 3.57424592,1.24758832 C3.34275546,1.81197633 2.28093471,4.43089545 0.388751829,9.10442425 C0.338427817,9.21334124 0.247845952,9.36309985 0.117003519,9.55370457 C-0.0138389148,9.74430929 -0.0893253116,6.96569794 0.192489161,7.66375679 Z" id="M-Copy" transform="translate(3.262867, 4.938370) scale(-1, 1) translate(-3.262867, -4.938370) "></path>
                    </g>
                </g>
            </g>
        </g>
    </g>
</svg>